<?xml version="1.0" standalone="no"?>
<!DOCTYPE svg PUBLIC "-//W3C//DTD SVG 20010904//EN"
 "http://www.w3.org/TR/2001/REC-SVG-20010904/DTD/svg10.dtd">
<svg version="1.0" xmlns="http://www.w3.org/2000/svg"
 width="577.000000pt" height="577.000000pt" viewBox="0 0 577.000000 577.000000"
 preserveAspectRatio="xMidYMid meet">
<metadata>
Created by potrace 1.14, written by Peter Selinger 2001-2017
</metadata>
<g transform="translate(0.000000,577.000000) scale(0.100000,-0.100000)"
fill="#000000" stroke="none">
<path d="M2985 3868 c-38 -4 -146 -9 -240 -11 -154 -2 -174 -5 -210 -25 -22
-12 -45 -22 -51 -22 -22 0 -110 -77 -128 -111 -9 -19 -27 -48 -39 -65 -12 -18
-31 -47 -42 -65 -11 -18 -28 -45 -37 -59 -9 -14 -17 -34 -17 -46 -1 -11 -5
-24 -10 -30 -18 -19 -32 -85 -32 -147 0 -51 8 -85 36 -158 55 -141 55 -145 23
-209 -34 -66 -42 -157 -22 -233 8 -29 14 -70 14 -93 0 -38 22 -76 50 -86 15
-5 98 -225 105 -282 5 -35 1 -66 -14 -114 -11 -37 -28 -93 -36 -125 -15 -53
-20 -59 -63 -81 -26 -13 -58 -27 -72 -30 -14 -4 -52 -18 -85 -31 -33 -13 -152
-53 -265 -90 -338 -109 -421 -151 -529 -264 -113 -119 -153 -212 -221 -516
-47 -210 -130 -510 -207 -750 -30 -93 -58 -182 -63 -197 l-9 -28 1891 0 1891
0 -6 32 c-4 18 -13 69 -22 113 -16 85 -29 196 -40 335 -7 102 -41 337 -61 434
-37 176 -114 369 -171 432 -106 115 -212 171 -623 331 -77 30 -311 146 -357
176 -35 24 -46 45 -62 122 -22 104 -25 132 -24 187 1 50 9 70 52 145 27 49 53
100 56 114 4 15 18 32 31 38 25 11 72 100 79 151 1 8 8 35 15 60 7 25 12 70
11 100 -1 44 -7 60 -27 81 -25 27 -26 27 -9 75 9 26 25 54 36 62 11 8 18 20
15 28 -3 7 3 18 12 23 9 6 13 11 8 11 -5 0 -2 8 5 17 12 14 12 16 0 8 -11 -6
-13 -4 -7 11 4 10 10 31 13 46 3 15 9 26 13 23 4 -3 8 1 7 8 -1 30 4 47 14 47
5 0 7 -6 3 -12 -5 -10 -4 -10 5 -2 9 8 9 18 1 39 -9 23 -8 26 5 21 14 -5 20 5
16 27 -1 4 7 3 18 -3 25 -13 34 -13 26 0 -3 6 2 10 12 11 14 0 15 2 3 6 -25
10 -42 33 -36 49 3 8 2 13 -2 10 -5 -3 -16 4 -25 15 -22 25 -21 32 2 19 36
-19 46 -10 14 11 -18 12 -33 25 -33 31 0 5 -4 6 -10 3 -5 -3 -15 -3 -21 1 -8
4 1 14 22 25 20 11 27 18 17 19 -9 0 -20 -4 -23 -10 -3 -5 -12 -10 -18 -9 -9
0 -8 2 1 6 6 2 9 10 6 15 -4 7 -2 8 5 4 6 -4 14 0 18 10 4 10 2 19 -3 21 -6 2
-9 22 -7 46 2 31 0 38 -7 27 -8 -11 -9 -6 -7 20 3 29 -2 41 -31 70 -19 19 -31
29 -27 21 10 -18 -9 -7 -48 29 -32 28 -100 59 -133 59 -11 1 -29 11 -40 22
-45 51 -147 72 -279 57z"/>
<path d="M3533 3105 c0 -8 4 -12 9 -9 5 3 6 10 3 15 -9 13 -12 11 -12 -6z"/>
</g>
</svg>
